<?xml version="1.0" standalone="no"?>
<!DOCTYPE svg PUBLIC "-//W3C//DTD SVG 20010904//EN"
 "http://www.w3.org/TR/2001/REC-SVG-20010904/DTD/svg10.dtd">
<svg version="1.0" xmlns="http://www.w3.org/2000/svg"
 width="150.000000pt" height="150.000000pt" viewBox="0 0 150.000000 150.000000"
 preserveAspectRatio="xMidYMid meet">
<metadata>
Created by potrace 1.14, written by Peter Selinger 2001-2017
</metadata>
<g transform="translate(0.000000,150.000000) scale(0.100000,-0.100000)"
fill="#000000" stroke="none">
<path d="M67 1044 c-4 -4 -4 -17 -1 -29 3 -13 1 -26 -5 -30 -6 -3 -9 -10 -6
-15 3 -5 -4 -15 -15 -23 -11 -7 -18 -16 -15 -19 3 -3 -1 -11 -10 -18 -17 -14
-19 -39 -6 -72 6 -13 17 -49 26 -81 9 -32 20 -55 25 -52 6 4 7 -1 3 -11 -4
-11 -2 -15 4 -11 6 4 10 -1 9 -11 0 -9 5 -16 12 -14 8 1 10 -2 7 -8 -9 -15 39
-86 67 -101 20 -10 19 -8 -4 15 -16 15 -28 30 -28 33 0 4 13 -6 30 -22 16 -15
27 -32 24 -36 -4 -8 34 -39 49 -39 4 0 5 6 2 13 -3 6 2 2 11 -11 15 -20 42
-33 30 -13 -3 4 7 6 22 3 24 -5 25 -6 7 -14 -16 -7 -15 -8 8 -5 15 3 27 0 27
-5 0 -6 11 -8 24 -4 12 3 26 3 30 -1 10 -10 46 -11 40 -1 -3 4 0 8 5 8 6 0 11
-5 11 -10 0 -6 12 -8 28 -6 139 22 173 29 178 38 9 15 1 18 -57 21 -44 2 -53
6 -51 20 4 21 -11 22 -29 1 -9 -11 -22 -14 -48 -9 -99 19 -184 99 -215 203 -8
30 -15 57 -15 60 1 4 1 25 0 47 -1 27 -4 35 -10 26 -7 -11 -9 -11 -14 0 -4 10
-6 9 -6 -3 -1 -9 4 -18 9 -20 6 -2 12 -28 14 -58 6 -72 19 -113 45 -139 12
-12 19 -27 15 -33 -4 -7 -3 -8 4 -4 6 3 16 -3 22 -14 11 -20 67 -54 125 -76
30 -12 30 -12 -12 -10 -24 0 -43 5 -43 9 0 5 -9 6 -20 2 -14 -5 -30 4 -60 35
-31 32 -45 40 -63 35 -17 -5 -19 -4 -7 4 10 7 11 11 3 11 -7 0 -10 7 -7 15 4
8 -1 17 -10 21 -11 4 -14 13 -11 25 7 20 5 20 -48 24 -15 1 -33 8 -40 15 -10
10 -7 12 11 7 17 -4 21 -2 13 7 -7 8 -4 15 10 24 19 12 18 32 -2 32 -6 0 -7
-4 -4 -10 3 -5 -3 -10 -13 -10 -22 0 -37 26 -19 33 9 3 9 8 1 16 -16 18 -29
-36 -13 -55 7 -8 10 -16 7 -19 -2 -2 -12 9 -22 25 -13 23 -14 30 -4 30 9 0 9
3 -2 10 -13 9 -13 12 3 24 18 14 24 32 7 21 -5 -3 -10 -3 -10 2 0 12 88 46
121 47 16 1 29 7 29 13 0 9 11 11 33 7 l32 -5 -24 20 c-24 21 -47 29 -36 12 8
-13 -26 -30 -73 -37 -22 -3 -57 -12 -78 -19 -33 -12 -41 -12 -50 0 -7 10 -15
11 -22 5 -7 -6 -5 -2 3 7 12 13 18 14 27 5 15 -15 29 -16 26 -1 -3 12 50 32
63 24 4 -3 9 -1 11 4 1 5 18 12 36 14 43 7 49 13 23 22 -12 3 -21 11 -21 16 0
5 -9 9 -21 9 -11 0 -27 7 -36 15 -8 8 -19 13 -24 10 -5 -4 -9 1 -9 9 0 9 -7
16 -16 16 -8 0 -12 5 -9 10 7 11 2 13 -8 4z m68 -74 c3 -5 -1 -10 -10 -10 -9
0 -13 5 -10 10 3 6 8 10 10 10 2 0 7 -4 10 -10z m21 -29 c-4 -6 -14 -7 -23 -4
-15 6 -14 7 3 13 22 9 29 6 20 -9z m-96 -191 c6 -11 8 -20 6 -20 -3 0 -10 9
-16 20 -6 11 -8 20 -6 20 3 0 10 -9 16 -20z m108 -93 c-1 -2 3 -11 11 -20 7
-10 9 -17 3 -17 -15 0 -34 28 -27 40 4 6 9 9 12 6 2 -2 3 -6 1 -9z m32 -67 c8
-5 11 -10 5 -10 -5 0 -17 5 -25 10 -8 5 -10 10 -5 10 6 0 17 -5 25 -10z"/>
<path d="M733 1012 c-31 -17 -31 -18 -14 -38 14 -18 17 -41 16 -142 -1 -83 -5
-125 -14 -136 -12 -14 -7 -16 45 -15 57 0 58 1 37 16 -22 15 -23 21 -23 169 0
84 -3 155 -8 157 -4 3 -21 -2 -39 -11z"/>
<path d="M1278 1014 c-27 -14 -28 -14 -8 -34 18 -18 20 -34 20 -145 0 -102 -3
-127 -15 -131 -32 -13 -13 -24 40 -24 55 0 74 13 34 23 -16 4 -20 12 -17 33 5
42 21 39 57 -11 29 -40 36 -45 72 -45 28 0 39 4 39 15 0 8 -6 12 -12 10 -7 -2
-20 1 -28 8 -27 22 -70 78 -70 92 0 7 20 23 46 35 25 12 42 25 39 28 -9 9
-105 10 -105 1 0 -4 6 -9 13 -12 8 -3 3 -14 -16 -33 -19 -20 -30 -25 -35 -17
-4 6 -6 59 -5 117 1 114 0 117 -49 90z"/>
<path d="M448 987 c18 -19 20 -36 21 -144 0 -95 -3 -124 -14 -133 -27 -22 -16
-30 45 -29 64 1 74 8 38 24 -20 9 -23 17 -23 70 l0 60 30 -3 c17 -2 38 -12 48
-24 9 -11 17 -16 18 -12 7 62 7 94 0 94 -5 0 -12 -7 -15 -16 -4 -11 -17 -14
-43 -12 l-38 3 -1 58 -1 57 48 0 c38 0 51 -5 64 -22 18 -26 33 -13 30 25 -2
21 -6 22 -114 24 l-113 1 20 -21z"/>
<path d="M893 864 c-18 -9 -33 -23 -33 -30 0 -21 33 -17 53 7 15 16 21 18 33
9 8 -7 14 -23 14 -35 0 -18 -7 -25 -32 -30 -68 -14 -100 -59 -66 -93 14 -14
57 -16 78 -2 9 5 19 5 27 -2 16 -13 59 -3 67 17 4 10 -1 15 -14 15 -18 0 -20
7 -20 68 0 40 -5 73 -12 80 -17 17 -57 15 -95 -4z m67 -130 c0 -13 -6 -24 -12
-25 -7 0 -21 -2 -30 -4 -18 -3 -32 20 -22 37 8 12 47 27 57 21 4 -2 7 -15 7
-29z"/>
<path d="M1132 873 c-29 -6 -53 -42 -46 -70 3 -12 25 -31 50 -44 29 -14 44
-28 42 -38 -5 -24 -50 -25 -76 -1 -12 11 -22 19 -23 18 -9 -37 -7 -46 14 -52
71 -19 127 4 127 52 0 21 -38 54 -77 66 -14 4 -23 15 -23 27 0 15 7 19 30 19
18 0 33 -6 36 -15 9 -24 33 -18 29 6 -3 12 -6 23 -7 24 -8 6 -56 11 -76 8z"/>
<path d="M134 815 c4 -24 16 -30 16 -7 0 12 -4 22 -9 22 -5 0 -8 -7 -7 -15z"/>
<path d="M200 765 c0 -8 4 -15 10 -15 5 0 7 7 4 15 -4 8 -8 15 -10 15 -2 0 -4
-7 -4 -15z"/>
</g>
</svg>
